<?xml version="1.0" standalone="no"?>
<!DOCTYPE svg PUBLIC "-//W3C//DTD SVG 20010904//EN"
 "http://www.w3.org/TR/2001/REC-SVG-20010904/DTD/svg10.dtd">
<svg version="1.0" xmlns="http://www.w3.org/2000/svg"
 width="269.000000pt" height="300.000000pt" viewBox="0 0 269.000000 300.000000"
 preserveAspectRatio="xMidYMid meet">
<metadata>
Created by potrace 1.10, written by Peter Selinger 2001-2011
</metadata>
<g transform="translate(0.000000,300.000000) scale(0.100000,-0.100000)"
fill="#000000" stroke="none">
<path d="M1035 2888 c-22 -11 -78 -59 -125 -107 -71 -71 -94 -104 -138 -190
-55 -110 -60 -154 -8 -75 37 57 116 123 232 194 135 83 177 138 139 180 -23
25 -49 25 -100 -2z m70 -18 c8 -13 -5 -61 -15 -55 -4 3 -10 -1 -13 -9 -6 -15
-79 -66 -138 -96 -21 -11 -39 -24 -39 -28 0 -4 -11 -12 -25 -19 -21 -9 -25 -9
-25 4 0 21 153 171 198 193 43 22 49 23 57 10z"/>
<path d="M1059 2550 c-47 -10 -126 -34 -175 -55 -49 -20 -99 -39 -111 -42 -13
-3 -23 -11 -23 -18 0 -10 12 -10 58 2 40 10 84 13 147 10 131 -8 190 -16 193
-27 2 -6 7 -8 12 -5 4 3 52 -7 106 -21 56 -15 140 -28 194 -31 l95 -5 33 32
c71 71 19 131 -140 164 -103 21 -279 20 -389 -4z m386 -22 c40 -7 100 -31 118
-46 9 -8 17 -27 17 -42 0 -22 -8 -30 -39 -45 -35 -15 -47 -16 -113 -5 -40 6
-89 16 -108 21 -149 38 -262 60 -317 62 -7 0 -13 8 -13 18 0 13 11 20 38 25
20 3 51 10 67 14 28 8 304 6 350 -2z"/>
<path d="M793 2355 c-78 -62 -87 -198 -29 -408 45 -160 55 -181 50 -96 -4 55
0 78 31 164 82 228 91 286 53 329 -34 38 -67 41 -105 11z m66 -19 c7 -8 14
-24 16 -36 2 -12 7 -31 10 -43 5 -17 4 -19 -4 -7 -9 12 -11 9 -11 -15 1 -31
-71 -265 -81 -265 -3 0 -13 44 -23 99 -17 89 -17 114 -1 191 4 19 38 71 52 79
24 14 29 13 42 -3z"/>
<path d="M1430 2241 c-114 -37 -202 -154 -199 -265 l1 -41 9 38 c13 57 33 89
80 131 123 111 296 124 394 29 21 -20 33 -27 27 -16 -15 27 -84 88 -124 109
-36 19 -149 28 -188 15z"/>
<path d="M950 2127 c0 -81 33 -224 69 -302 65 -138 152 -206 325 -255 328 -92
524 -237 565 -417 6 -29 10 -34 16 -21 12 29 -31 151 -73 207 -22 28 -63 69
-93 91 -30 22 -59 43 -65 47 -5 4 -46 26 -90 48 -43 22 -82 45 -86 50 -4 6 -8
7 -8 3 0 -10 -202 87 -265 128 -30 18 -77 57 -105 84 -51 52 -123 155 -123
178 0 6 -3 12 -7 12 -4 0 -7 6 -8 13 0 6 -10 38 -21 70 -11 32 -18 64 -15 71
3 8 1 17 -5 21 -7 4 -11 -6 -11 -28z m185 -367 c39 -39 88 -80 110 -91 52 -26
76 -41 95 -58 13 -13 13 -14 -5 -7 -11 4 -32 10 -47 13 -16 3 -28 10 -28 15 0
5 -5 6 -12 2 -7 -5 -9 -2 -6 8 5 11 1 14 -15 11 -22 -4 -117 65 -126 90 -2 7
-7 14 -10 17 -9 7 -41 58 -41 65 0 15 21 -2 85 -65z"/>
<path d="M1747 2084 c-3 -4 -4 -17 -1 -30 16 -64 -53 -160 -146 -201 -119 -54
-233 -52 -306 4 l-45 33 15 -27 c37 -71 154 -143 233 -143 100 0 208 73 249
167 25 60 27 222 1 197z m-54 -238 c-36 -51 -105 -86 -179 -92 -54 -4 -66 -3
-54 6 12 10 10 11 -10 6 -24 -5 -24 -4 -6 9 25 19 50 20 40 3 -5 -9 -3 -9 9 1
9 7 26 11 38 8 26 -7 72 9 64 23 -3 5 0 7 8 4 8 -3 34 10 58 29 50 39 59 40
32 3z"/>
<path d="M897 1459 c-6 -129 -10 -147 -52 -235 -41 -85 -105 -159 -183 -210
-101 -67 -169 -122 -208 -170 -22 -26 -44 -52 -49 -58 -21 -22 -74 -152 -81
-196 -8 -56 7 -44 25 20 32 112 123 210 301 326 217 140 311 314 281 519 -18
120 -28 121 -34 4z"/>
<path d="M259 1443 c-19 -21 -54 -61 -76 -90 -47 -61 -90 -98 -128 -113 -26
-10 -27 -13 -22 -55 9 -61 49 -136 89 -167 70 -54 153 -74 165 -40 17 48 56
81 157 131 126 62 129 68 101 187 -19 81 -122 169 -211 181 -35 4 -43 1 -75
-34z m91 -3 c0 -5 13 -10 28 -10 16 0 39 -10 52 -22 14 -13 28 -22 32 -20 5 1
7 -1 7 -5 -3 -19 2 -34 10 -29 15 10 42 -66 45 -128 1 -24 -5 -33 -29 -45 -16
-9 -31 -19 -33 -23 -2 -4 -9 -5 -17 -2 -7 3 -16 0 -21 -7 -4 -8 -3 -10 4 -5 7
4 12 4 12 1 0 -3 -20 -15 -45 -26 -25 -11 -45 -25 -45 -31 0 -5 -8 -7 -17 -4
-10 4 -14 4 -11 1 4 -4 -6 -19 -21 -34 -15 -15 -30 -34 -33 -43 -4 -11 -15
-14 -32 -11 -14 3 -26 9 -26 14 0 5 -7 6 -15 3 -40 -16 -124 92 -130 167 -2
27 2 32 49 54 56 28 69 37 105 78 36 40 18 33 -24 -10 l-37 -38 31 44 c63 90
113 141 137 141 13 0 24 -4 24 -10z"/>
<path d="M1645 1196 c21 -8 41 -13 44 -11 8 9 -7 16 -45 21 l-39 5 40 -15z"/>
<path d="M1510 1187 c-50 -22 -99 -69 -122 -115 -18 -38 -23 -63 -22 -128 0
-124 40 -197 135 -248 57 -31 189 -50 189 -27 0 7 -17 11 -42 10 -108 -3 -187
77 -213 216 -22 118 24 233 113 279 45 24 46 25 17 25 -16 0 -41 -5 -55 -12z"/>
<path d="M1710 1168 c0 -4 5 -19 11 -35 7 -20 7 -56 -2 -130 -10 -83 -10 -105
0 -117 19 -23 86 -21 110 3 11 11 21 18 23 16 2 -2 4 15 6 37 4 54 -28 114
-94 179 -30 29 -54 50 -54 47z m80 -150 c0 -13 5 -18 14 -15 23 9 32 -62 10
-82 -9 -9 -14 -10 -10 -3 4 6 2 12 -3 12 -6 0 -11 -6 -11 -14 0 -19 -26 -27
-39 -12 -6 7 -9 28 -7 47 2 19 4 57 5 84 l2 50 19 -24 c11 -13 20 -32 20 -43z"/>
<path d="M2132 1144 c-12 -8 -28 -27 -36 -42 -12 -25 -32 -178 -40 -313 -5
-87 -29 -177 -68 -251 -6 -14 -5 -16 7 -12 24 9 142 172 175 241 45 93 65 193
52 263 -13 72 -37 130 -54 130 -8 0 -24 -7 -36 -16z m65 -136 c7 -98 -24 -199
-95 -303 l-35 -50 7 45 c3 25 8 72 11 105 13 174 19 221 31 252 8 18 11 33 7
33 -4 0 2 6 13 14 33 25 54 -7 61 -96z"/>
<path d="M2480 832 c-14 -2 -39 -15 -57 -28 -17 -13 -34 -24 -37 -24 -4 0 -37
-29 -74 -64 -37 -35 -89 -85 -117 -111 -106 -100 -239 -190 -299 -201 -28 -5
-76 -22 -76 -27 0 -10 182 16 258 37 161 46 351 139 435 215 68 61 95 155 54
190 -16 12 -54 18 -87 13z m70 -47 c20 -24 -7 -83 -62 -137 -27 -26 -56 -48
-64 -48 -8 0 -14 -4 -14 -8 0 -10 -175 -98 -212 -107 -16 -4 -28 -10 -28 -14
0 -4 -8 -7 -17 -8 -10 -1 -36 -4 -58 -8 l-40 -6 25 21 c14 11 45 37 69 58 25
20 75 66 111 102 81 79 162 146 172 143 5 -2 8 1 8 6 0 22 92 27 110 6z"/>
<path d="M860 728 c-214 -60 -333 -119 -422 -207 -55 -56 -69 -77 -83 -126
-20 -68 -16 -116 16 -182 38 -79 91 -119 124 -95 13 8 58 72 52 72 -2 0 0 19
4 43 5 23 11 62 13 87 3 24 10 46 16 48 5 2 8 8 4 13 -7 12 32 131 59 178 11
20 33 48 47 63 30 31 134 85 180 94 16 4 30 10 30 15 0 5 -1 9 -2 8 -2 -1 -19
-5 -38 -11z m-256 -139 c-4 -8 1 -9 17 -4 23 7 23 7 8 -11 -19 -21 -62 -104
-55 -104 3 0 -1 -15 -8 -32 -8 -18 -22 -78 -31 -133 -18 -107 -39 -165 -61
-165 -7 0 -25 11 -41 24 -25 22 -26 26 -15 52 12 24 11 26 -2 14 -14 -11 -18
-7 -32 26 -45 107 47 268 188 329 41 18 41 18 32 4z"/>
<path d="M1805 677 c-33 -18 -100 -59 -148 -91 -148 -98 -224 -113 -319 -65
-48 25 -57 24 -25 -1 14 -11 30 -20 36 -20 6 0 11 -4 11 -10 0 -10 120 -50
151 -50 10 0 19 -3 19 -8 0 -7 44 -12 113 -13 58 -1 107 6 107 14 0 4 6 7 13
6 23 -5 107 43 138 78 36 42 49 72 49 119 0 83 -45 95 -145 41z m111 -49 c1
-38 -5 -54 -29 -83 -30 -37 -84 -70 -133 -80 -78 -17 -128 -24 -138 -18 -5 4
-26 6 -46 5 -19 -1 -42 2 -50 8 -12 8 -11 10 7 10 12 0 34 12 48 26 22 22 28
24 42 12 9 -7 14 -8 10 -2 -7 12 27 54 43 54 6 0 33 17 62 37 67 49 138 83
163 80 17 -2 20 -10 21 -49z"/>
<path d="M313 475 c0 -33 2 -45 4 -27 2 18 2 45 0 60 -2 15 -4 0 -4 -33z"/>
<path d="M723 483 c-20 -30 -20 -30 -38 -144 -4 -26 -22 -77 -40 -115 -19 -38
-31 -71 -28 -74 3 -3 8 1 10 8 3 6 9 10 14 6 5 -3 8 -2 7 3 -2 4 16 33 39 63
63 84 112 215 98 260 -9 28 -41 25 -62 -7z m26 -68 c-13 -43 -29 -61 -29 -31
0 21 30 89 37 83 3 -4 -1 -27 -8 -52z"/>
<path d="M1027 385 c-21 -8 -77 -47 -125 -87 -134 -113 -187 -148 -260 -174
-69 -24 -65 -28 28 -25 93 4 264 70 358 140 73 54 104 128 63 151 -11 5 -21
10 -23 9 -2 0 -20 -7 -41 -14z m35 -69 c-9 -16 -26 -34 -37 -40 -11 -6 -24
-17 -28 -24 -13 -19 -207 -111 -207 -98 0 16 14 36 26 36 7 0 17 6 21 13 11
16 139 127 148 127 3 0 14 7 22 16 9 8 24 13 34 11 11 -3 19 0 19 6 0 7 4 5
10 -3 6 -10 4 -24 -8 -44z"/>
</g>
</svg>
